<svg width="20" height="20" viewBox="0 0 20 20" fill="none" xmlns="http://www.w3.org/2000/svg">
<g clip-path="url(#clip0)">
<path d="M4.44414 10.7804L13.3444 19.6805C13.5502 19.8865 13.825 20 14.118 20C14.411 20 14.6858 19.8865 14.8917 19.6805L15.5471 19.0252C15.9736 18.5982 15.9736 17.9042 15.5471 17.4779L8.07338 10.0041L15.5554 2.52209C15.7613 2.31608 15.8749 2.04145 15.8749 1.7486C15.8749 1.45543 15.7613 1.1808 15.5554 0.974625L14.9 0.319508C14.694 0.113495 14.4193 -1.27252e-07 14.1263 -1.52868e-07C13.8333 -1.78483e-07 13.5585 0.113495 13.3527 0.319507L4.44414 9.22773C4.2378 9.43439 4.12447 9.71033 4.12512 10.0037C4.12447 10.2981 4.2378 10.5739 4.44414 10.7804Z" fill="black"/>
</g>
<defs>
<clipPath id="clip0">
<rect width="20" height="20" fill="white" transform="translate(20 20) rotate(-180)"/>
</clipPath>
</defs>
</svg>
